# xmcd
#
# Track frame offsets:
#	182
#	15177
#	32612
#	48972
#	62492
#	79100
#	93775
#	107995
#	133045
#	148757
#	169250
#	183395
#	200642
#	231247
#	246852
#
# Disc length: 3458 seconds
#
# Revision: 2
# Processed by: cddbd v1.5.2PL0 Copyright (c) Steve Scherf et al.
# Submitted via: audiograbber 1.83.01
#
DISCID=c50d800f
DTITLE=Eagles Buffet Taylor - MM6032
DYEAR=1900
DGENRE=
TTITLE0=Jimmy Buffett - Come Monday
TTITLE1=Eagles - Best Of My Love
TTITLE2=James Taylor - Fire And Rain
TTITLE3=Jimmy Buffett - Cheeseburger In Paradise
TTITLE4=Eagles - Take It To The Limit
TTITLE5=Jimmy Buffett - Changes In Latitude Chandes In Attitude
TTITLE6=James Taylor - Your Smiling Face
TTITLE7=Eagles - Hotel California
TTITLE8=Jimmy Buffett - Margaritaville
TTITLE9=Eagels - Heartache Tonight
TTITLE10=James Taylor - Handy Man
TTITLE11=Jimmy Buffett - Volcano
TTITLE12=Eagles - Lyin Eyes
TTITLE13=James Taylor - How Sweet It Is To Be Loved By You
TTITLE14=Jimmy Buffett - Why Dont We Get Drunk
EXTD=
EXTT0=
EXTT1=
EXTT2=
EXTT3=
EXTT4=
EXTT5=
EXTT6=
EXTT7=
EXTT8=
EXTT9=
EXTT10=
EXTT11=
EXTT12=
EXTT13=
EXTT14=
PLAYORDER=
